<svg width="400" height="399" viewBox="0 0 400 399" fill="none" xmlns="http://www.w3.org/2000/svg">
<path d="M346.286 146.286H253.195V53.195H146.805V146.286H53.714V252.675H146.805V345.766H253.195V252.675H346.286V146.286Z" fill="#5CA15D"/>
<path d="M345.775 92.068H307.414V53.705C307.414 24.045 283.368 0 253.707 0C224.045 0 200 24.045 200 53.705V199.48H345.774C375.435 199.48 399.479 175.435 399.479 145.775C399.48 116.114 375.435 92.068 345.775 92.068Z" fill="#5CA15D"/>
<path d="M200 53.705C200 24.045 175.955 0 146.293 0C116.631 0 92.588 24.045 92.588 53.705V92.068L54.225 92.067C24.564 92.067 0.520004 116.112 0.520004 145.774C0.520004 175.436 24.565 199.481 54.225 199.481H200V53.705Z" fill="#6DC180"/>
<path d="M54.225 199.481C24.565 199.481 0.520004 223.526 0.520004 253.188C0.520004 282.848 24.565 306.893 54.225 306.893H92.588V345.256C92.588 374.916 116.633 398.961 146.295 398.961C175.957 398.961 200.002 374.916 200.002 345.256V199.481H54.225Z" fill="#5CA15D"/>
<path d="M345.775 199.481H200V345.256C200 374.917 224.045 398.961 253.705 398.961C283.365 398.961 307.412 374.916 307.412 345.254V306.893L345.775 306.894C375.435 306.894 399.48 282.849 399.48 253.187C399.48 223.525 375.435 199.481 345.775 199.481Z" fill="#4E894D"/>
</svg>
