<svg width="40" height="40" viewBox="0 0 40 40" fill="none" xmlns="http://www.w3.org/2000/svg">
<g clip-path="url(#clip0_51556_4975)">
<circle cx="20" cy="20" r="20" fill="#D0E8D8"/>
<g clip-path="url(#clip1_51556_4975)">
<path d="M28.7772 16.7992H23.1917V11.1997H16.8083V16.7992H11.2228V23.1985H16.8083V28.798H23.1917V23.1985H28.7772V16.7992Z" fill="#5CA15D"/>
<path d="M28.7465 13.5379H26.4448V11.2304C26.4448 9.44632 25.0021 8 23.2224 8C21.4427 8 20 9.44632 20 11.2304V19.9988H28.7464C30.5261 19.9988 31.9687 18.5525 31.9687 16.7684C31.9688 14.9843 30.5261 13.5379 28.7465 13.5379Z" fill="#5CA15D"/>
<path d="M20 11.2304C20 9.44632 18.5573 8 16.7776 8C14.9978 8 13.5553 9.44632 13.5553 11.2304V13.5379L11.2535 13.5379C9.47383 13.5379 8.03119 14.9842 8.03119 16.7684C8.03119 18.5525 9.47389 19.9989 11.2535 19.9989H20V11.2304Z" fill="#6DC180"/>
<path d="M11.2535 19.9989C9.47389 19.9989 8.03119 21.4452 8.03119 23.2294C8.03119 25.0134 9.47389 26.4597 11.2535 26.4597H13.5553V28.7673C13.5553 30.5514 14.998 31.9977 16.7777 31.9977C18.5574 31.9977 20.0001 30.5514 20.0001 28.7673V19.9989H11.2535Z" fill="#5CA15D"/>
<path d="M28.7465 19.9989H20V28.7673C20 30.5514 21.4427 31.9977 23.2223 31.9977C25.0019 31.9977 26.4447 30.5514 26.4447 28.7672V26.4597L28.7465 26.4598C30.5261 26.4598 31.9688 25.0135 31.9688 23.2293C31.9688 21.4451 30.5261 19.9989 28.7465 19.9989Z" fill="#4E894D"/>
</g>
</g>
<defs>
<clipPath id="clip0_51556_4975">
<rect width="40" height="40" fill="white"/>
</clipPath>
<clipPath id="clip1_51556_4975">
<rect width="24" height="24" fill="white" transform="translate(8 8)"/>
</clipPath>
</defs>
</svg>
